<svg width="48" height="22" viewBox="0 0 48 22" fill="none" xmlns="http://www.w3.org/2000/svg">
<path d="M43.4757 0.000373941H3.66654C1.64933 0.000373941 0 1.65045 0 3.66692V18.3335C0 20.35 1.64933 22 3.66654 22H43.4757C45.4929 22 47.1423 20.3499 47.1423 18.3335V3.66692C47.1423 1.65008 45.4929 0 43.4757 0V0.000373941ZM3.66654 2.09578H43.4757C44.342 2.09578 45.0472 2.80096 45.0472 3.66729V11.0004H2.09522V3.66729C2.09522 2.80062 2.8004 2.09578 3.66673 2.09578H3.66654ZM6.30016 19.9052L6.8084 17.7038C6.84749 17.532 7.15661 17.2861 7.33308 17.2861H39.809C39.9855 17.2861 40.2946 17.5317 40.3337 17.7038L40.8423 19.9052H6.30016ZM43.4763 19.9052H42.9929L42.3758 17.2328C42.1171 16.1096 40.9621 15.1911 39.8097 15.1911H7.33377C6.1814 15.1911 5.02641 16.11 4.76768 17.2328L4.15056 19.9052H3.66716C2.80085 19.9052 2.09565 19.2 2.09565 18.3336V13.0956H45.0477V18.3336C45.048 19.2003 44.3428 19.9052 43.4765 19.9052H43.4763Z" fill="black"/>
<path d="M38.7614 7.33332H41.3804C41.9588 7.33332 42.4279 6.86454 42.4279 6.2858C42.4279 5.70741 41.9584 5.23828 41.3804 5.23828H38.7614C38.183 5.23828 37.7139 5.70779 37.7139 6.2858C37.7139 6.86456 38.1834 7.33332 38.7614 7.33332Z" fill="black"/>
</svg>
