<svg width="36" height="36" viewBox="0 0 36 36" fill="currentColor" xmlns="http://www.w3.org/2000/svg">
<path d="M24.0027 10.4976L18.0027 16.4976L13.2327 16.4976C12.4977 14.4726 10.3977 13.1076 8.04269 13.6026C7.16832 13.7949 6.37077 14.2426 5.75121 14.8889C5.13165 15.5351 4.71799 16.3509 4.56269 17.2326C4.45141 17.8791 4.48281 18.5422 4.6547 19.1754C4.82658 19.8086 5.1348 20.3965 5.55775 20.8981C5.98071 21.3996 6.50819 21.8026 7.10326 22.0789C7.69833 22.3552 8.34661 22.4981 9.00269 22.4976C10.9527 22.4976 12.6027 21.2376 13.2327 19.4976L18.0027 19.4976L24.0027 25.4976L24.0027 29.9976C24.0027 30.8226 24.6777 31.4976 25.5027 31.4976L30.0027 31.4976C30.8277 31.4976 31.5027 30.8226 31.5027 29.9976L31.5027 25.4976C31.5027 24.6726 30.8277 23.9976 30.0027 23.9976L26.9277 23.9976L20.6277 17.9976L26.9277 11.9976L30.0027 11.9976C30.8277 11.9976 31.5027 11.3226 31.5027 10.4976L31.5027 5.99756C31.5027 5.17256 30.8277 4.49756 30.0027 4.49756L25.5027 4.49756C24.6777 4.49756 24.0027 5.17256 24.0027 5.99756L24.0027 10.4976Z" fill="currentColor"/>
</svg>
