<svg width="21" height="20" viewBox="0 0 21 20" fill="none" xmlns="http://www.w3.org/2000/svg">
<path fill-rule="evenodd" clip-rule="evenodd" d="M7.95978 14.7074C7.77231 14.5199 7.66699 14.2656 7.66699 14.0004C7.66699 13.7352 7.77231 13.4809 7.95978 13.2934L11.2528 10.0004L7.95978 6.70741C7.77762 6.5188 7.67683 6.2662 7.6791 6.00401C7.68138 5.74181 7.78655 5.491 7.97196 5.30559C8.15737 5.12018 8.40818 5.01501 8.67038 5.01273C8.93257 5.01045 9.18518 5.11125 9.37378 5.29341L13.3738 9.29341C13.5612 9.48094 13.6666 9.73524 13.6666 10.0004C13.6666 10.2656 13.5612 10.5199 13.3738 10.7074L9.37378 14.7074C9.18625 14.8949 8.93194 15.0002 8.66678 15.0002C8.40161 15.0002 8.14731 14.8949 7.95978 14.7074Z" fill="black"/>
</svg>
