<svg width="20" height="20" viewBox="0 0 20 20" fill="none" xmlns="http://www.w3.org/2000/svg">
<path fill-rule="evenodd" clip-rule="evenodd" d="M14.707 12.7064C14.5194 12.8939 14.2651 12.9992 14 12.9992C13.7348 12.9992 13.4805 12.8939 13.293 12.7064L9.99997 9.41343L6.70697 12.7064C6.61472 12.8019 6.50438 12.8781 6.38237 12.9305C6.26037 12.9829 6.12915 13.0105 5.99637 13.0117C5.86359 13.0128 5.73191 12.9875 5.60902 12.9373C5.48612 12.887 5.37447 12.8127 5.28057 12.7188C5.18668 12.6249 5.11243 12.5133 5.06215 12.3904C5.01187 12.2675 4.98656 12.1358 4.98772 12.003C4.98887 11.8702 5.01646 11.739 5.06887 11.617C5.12128 11.495 5.19746 11.3847 5.29297 11.2924L9.29297 7.29243C9.4805 7.10496 9.73481 6.99964 9.99997 6.99964C10.2651 6.99964 10.5194 7.10496 10.707 7.29243L14.707 11.2924C14.8944 11.48 14.9998 11.7343 14.9998 11.9994C14.9998 12.2646 14.8944 12.5189 14.707 12.7064V12.7064Z" fill="black"/>
</svg>
