<svg width="26" height="26" viewBox="0 0 26 26" fill="none" xmlns="http://www.w3.org/2000/svg">
<rect x="2" y="2" width="22" height="22" rx="5" fill="#0080FF"/>
<path fill-rule="evenodd" clip-rule="evenodd" d="M19.7069 8.29303C19.8944 8.48056 19.9997 8.73487 19.9997 9.00003C19.9997 9.26519 19.8944 9.5195 19.7069 9.70703L11.7069 17.707C11.5194 17.8945 11.2651 17.9998 10.9999 17.9998C10.7348 17.9998 10.4804 17.8945 10.2929 17.707L6.29292 13.707C6.11076 13.5184 6.00997 13.2658 6.01224 13.0036C6.01452 12.7414 6.11969 12.4906 6.3051 12.3052C6.49051 12.1198 6.74132 12.0146 7.00352 12.0124C7.26571 12.0101 7.51832 12.1109 7.70692 12.293L10.9999 15.586L18.2929 8.29303C18.4804 8.10556 18.7348 8.00024 18.9999 8.00024C19.2651 8.00024 19.5194 8.10556 19.7069 8.29303Z" fill="white"/>
</svg>
