<svg width="24" height="25" viewBox="0 0 24 25" fill="none" xmlns="http://www.w3.org/2000/svg">
<path d="M12 8.79688V12.7969L15 15.7969M21 12.7969C21 13.9788 20.7672 15.1491 20.3149 16.241C19.8626 17.333 19.1997 18.3251 18.364 19.1608C17.5282 19.9966 16.5361 20.6595 15.4442 21.1118C14.3522 21.5641 13.1819 21.7969 12 21.7969C10.8181 21.7969 9.64778 21.5641 8.55585 21.1118C7.46392 20.6595 6.47177 19.9966 5.63604 19.1608C4.80031 18.3251 4.13738 17.333 3.68508 16.241C3.23279 15.1491 3 13.9788 3 12.7969C3 10.4099 3.94821 8.12074 5.63604 6.43291C7.32387 4.74509 9.61305 3.79687 12 3.79688C14.3869 3.79688 16.6761 4.74509 18.364 6.43291C20.0518 8.12074 21 10.4099 21 12.7969Z" stroke="#0C1B33" stroke-width="2" stroke-linecap="round" stroke-linejoin="round"/>
</svg>
