<svg width="21" height="19" viewBox="0 0 21 19" fill="none" xmlns="http://www.w3.org/2000/svg">
<path d="M10.5 7.72244L10.5 16.6113M14.0556 13.9447L16.7222 13.9447C17.1937 13.9447 17.6459 13.7574 17.9793 13.424C18.3127 13.0906 18.5 12.6384 18.5 12.1669L18.5 4.16688C18.5 3.69539 18.3127 3.2432 17.9793 2.90981C17.6459 2.57641 17.1937 2.38911 16.7222 2.38911L4.27778 2.3891C3.80628 2.3891 3.3541 2.57641 3.0207 2.9098C2.6873 3.2432 2.5 3.69539 2.5 4.16688L2.5 12.1669C2.5 12.6384 2.6873 13.0906 3.0207 13.424C3.3541 13.7574 3.80628 13.9447 4.27778 13.9447L6.94444 13.9447L14.0556 13.9447ZM7.83333 10.3891L10.5 7.72244L7.83333 10.3891ZM10.5 7.72244L13.1667 10.3891L10.5 7.72244Z" stroke="#121212" stroke-width="2" stroke-linecap="round" stroke-linejoin="round"/>
</svg>
