<svg width="66" height="66" viewBox="0 0 66 66" fill="none" xmlns="http://www.w3.org/2000/svg">
<path d="M58.8501 20.6252C61.0501 22.8252 61.0501 26.4002 58.8501 28.3252L51.1501 36.0252L29.7001 14.5752L37.4001 6.8752C39.6001 4.6752 43.1751 4.6752 45.1001 6.8752L50.0501 11.8252L58.3001 3.5752L62.1501 7.4252L53.9001 15.6752L58.8501 20.6252ZM42.9001 36.5752L39.0501 32.7252L31.3501 40.4252L25.5751 34.6502L33.2751 26.9502L29.4251 23.1002L21.7251 30.8002L17.6001 26.9502L9.9001 34.6502C7.7001 36.8502 7.7001 40.4252 9.9001 42.3502L14.8501 47.3002L3.8501 58.3002L7.7001 62.1502L18.7001 51.1502L23.6501 56.1002C25.8501 58.3002 29.4251 58.3002 31.3501 56.1002L39.0501 48.4002L35.2001 44.5502L42.9001 36.5752Z" fill="#E74C3C"/>
</svg>
