<svg width="18" height="19" viewBox="0 0 18 19" fill="none" xmlns="http://www.w3.org/2000/svg">
<path d="M8.38336 15.1768C8.45217 15.2767 8.54423 15.3584 8.65163 15.4148C8.75903 15.4713 8.87853 15.5008 8.99986 15.5008C9.12119 15.5008 9.2407 15.4713 9.34809 15.4148C9.45549 15.3584 9.54756 15.2767 9.61636 15.1768L16.3664 5.42675C16.4445 5.31429 16.4903 5.18257 16.4988 5.0459C16.5074 4.90924 16.4783 4.77284 16.4147 4.65155C16.3512 4.53025 16.2556 4.42869 16.1384 4.35789C16.0212 4.2871 15.8868 4.24979 15.7499 4.25H2.24986C2.11324 4.25057 1.97936 4.28836 1.86262 4.35932C1.74588 4.43029 1.65069 4.53173 1.58729 4.65275C1.52389 4.77376 1.49467 4.90977 1.50279 5.04615C1.51091 5.18253 1.55605 5.31411 1.63336 5.42675L8.38336 15.1768Z" fill="black"/>
</svg>
