<svg width="13" height="20" viewBox="0 0 13 20" fill="none" xmlns="http://www.w3.org/2000/svg">
<path d="M12.414 8.7702C12.2987 8.5113 12.041 8.34514 11.7576 8.34713H8.52581L10.4501 0.984246C10.5101 0.754259 10.4629 0.509511 10.3214 0.318221C10.18 0.12713 9.95981 0.010444 9.72226 0.000665313C9.4847 -0.0091088 9.25551 0.0892306 9.09892 0.267954L0.178596 10.4542C-0.00790455 10.667 -0.052386 10.9692 0.0642998 11.2267C0.18119 11.4842 0.437903 11.6498 0.720724 11.6498H3.95229L2.02821 19.0127C1.98114 19.1838 1.9943 19.3661 2.06571 19.5287C2.13732 19.6912 2.26239 19.8243 2.42037 19.9055C2.53526 19.9671 2.66332 19.9994 2.79357 20C3.01897 19.999 3.2328 19.9001 3.37942 19.7289L12.2998 9.54272C12.4881 9.33089 12.5329 9.02749 12.4141 8.77018L12.414 8.7702Z" fill="#F39200"/>
</svg>
