<svg width="25" height="25" viewBox="0 0 25 25" fill="none" xmlns="http://www.w3.org/2000/svg">
<g clip-path="url(#clip0_2640_8507)">
<path d="M5.00391 4.2334L20.0162 20.7469" stroke="#858484" stroke-width="1.50123" stroke-linecap="round" stroke-linejoin="round"/>
<path d="M15.0334 15.2674C14.3447 15.8984 13.4436 16.2468 12.5095 16.2432C11.752 16.2432 11.0123 16.0139 10.3875 15.5855C9.76278 15.1571 9.28229 14.5497 9.0092 13.8432C8.73612 13.1366 8.68324 12.3639 8.8575 11.6268C9.03176 10.8896 9.42502 10.2224 9.98557 9.71289" stroke="#858484" stroke-width="1.50123" stroke-linecap="round" stroke-linejoin="round"/>
<path d="M7.44293 6.91687C3.6148 8.8497 2.00098 12.4902 2.00098 12.4902C2.00098 12.4902 5.00343 19.2457 12.5096 19.2457C14.2684 19.26 16.0053 18.8548 17.5762 18.0635" stroke="#858484" stroke-width="1.50123" stroke-linecap="round" stroke-linejoin="round"/>
<path d="M20.072 16.3464C22.1175 14.5168 23.0182 12.4902 23.0182 12.4902C23.0182 12.4902 20.0157 5.73464 12.5096 5.73464C11.8589 5.73336 11.2092 5.78671 10.5674 5.89415" stroke="#858484" stroke-width="1.50123" stroke-linecap="round" stroke-linejoin="round"/>
<path d="M13.2139 8.80273C14.012 8.95396 14.7393 9.36069 15.286 9.96154C15.8327 10.5624 16.1691 11.3248 16.2445 12.1336" stroke="#858484" stroke-width="1.50123" stroke-linecap="round" stroke-linejoin="round"/>
</g>
<defs>
<clipPath id="clip0_2640_8507">
<rect width="24.0197" height="24.0197" fill="white" transform="translate(0.5 0.480347)"/>
</clipPath>
</defs>
</svg>
