<svg width="30" height="24" viewBox="0 0 30 24" fill="none" xmlns="http://www.w3.org/2000/svg">
<path fill-rule="evenodd" clip-rule="evenodd" d="M3.40322 0C5.2825 0 6.80541 1.52317 6.80541 3.40218C6.80541 5.28224 5.28224 6.80541 3.40322 6.80541C1.52317 6.80541 0 5.28224 0 3.40218C0 1.52291 1.52317 0 3.40322 0ZM11.7707 17.6772H26.7169C30.5786 17.6772 30.5786 23.5145 26.7169 23.5145H11.7707C7.90906 23.5145 7.90906 17.6772 11.7707 17.6772ZM3.40322 17.1941C5.2825 17.1941 6.80541 18.7178 6.80541 20.5973C6.80541 22.4768 5.28224 24 3.40322 24C1.52317 24 0 22.4768 0 20.5973C0 18.7178 1.52317 17.1941 3.40322 17.1941ZM11.7707 9.07878H26.7169C30.5786 9.07878 30.5786 14.9159 26.7169 14.9159H11.7707C7.90906 14.9159 7.90906 9.07878 11.7707 9.07878ZM3.40322 8.59515C5.2825 8.59515 6.80541 10.1191 6.80541 11.9984C6.80541 13.8784 5.28224 15.4016 3.40322 15.4016C1.52317 15.4016 0 13.8784 0 11.9984C0 10.1191 1.52317 8.59515 3.40322 8.59515ZM11.7707 0.482461H26.7169C30.5786 0.482461 30.5786 6.32086 26.7169 6.32086H11.7707C7.90906 6.32086 7.90906 0.482461 11.7707 0.482461Z" fill="#0C1B33"/>
</svg>
