<svg width="36" height="36" viewBox="0 0 36 36" fill="currentColor" xmlns="http://www.w3.org/2000/svg">
<path fill-rule="evenodd" clip-rule="evenodd" d="M17.7884 32.6119C21.7198 32.6119 25.4902 31.0501 28.2702 28.2702C31.0501 25.4902 32.6119 21.7198 32.6119 17.7884C32.6119 13.8569 31.0501 10.0865 28.2702 7.30656C25.4902 4.5266 21.7198 2.96484 17.7884 2.96484C13.8569 2.96484 10.0865 4.5266 7.30656 7.30656C4.5266 10.0865 2.96484 13.8569 2.96484 17.7884C2.96484 21.7198 4.5266 25.4902 7.30656 28.2702C10.0865 31.0501 13.8569 32.6119 17.7884 32.6119V32.6119ZM19.6413 10.3766C19.6413 9.88518 19.4461 9.41388 19.0986 9.06638C18.7511 8.71889 18.2798 8.52367 17.7884 8.52367C17.2969 8.52367 16.8256 8.71889 16.4781 9.06638C16.1307 9.41388 15.9354 9.88518 15.9354 10.3766V17.7884C15.9355 18.2798 16.1308 18.751 16.4783 19.0984L21.7185 24.3404C21.8906 24.5125 22.095 24.6491 22.3199 24.7423C22.5449 24.8354 22.7859 24.8834 23.0294 24.8834C23.2729 24.8834 23.514 24.8354 23.7389 24.7423C23.9638 24.6491 24.1682 24.5125 24.3404 24.3404C24.5125 24.1682 24.6491 23.9638 24.7423 23.7389C24.8354 23.514 24.8834 23.2729 24.8834 23.0294C24.8834 22.7859 24.8354 22.5449 24.7423 22.3199C24.6491 22.095 24.5125 21.8906 24.3404 21.7185L19.6413 17.0213V10.3766Z" fill="currentColor"/>
</svg>
