<svg width="29" height="30" viewBox="0 0 29 30" fill="none" xmlns="http://www.w3.org/2000/svg">
<path d="M14.3678 6.96606C9.84713 6.96606 6.17676 10.6365 6.17676 15.1571C6.17676 18.0663 7.69851 20.752 10.205 22.2291V27.1974C10.205 28.3164 11.1001 29.2115 12.2191 29.2115H16.5608C17.6797 29.2115 18.5749 28.3164 18.5749 27.1974L18.5752 22.1841C21.0816 20.707 22.6034 18.0662 22.6034 15.1121C22.5587 10.6361 18.8883 6.96582 14.3676 6.96582L14.3678 6.96606ZM16.74 24.6909H11.9956V23.7958H16.74V24.6909ZM16.5162 27.3766H12.1745C12.0849 27.3766 11.9506 27.287 11.9506 27.1528V26.4815H16.6951V27.1528C16.74 27.287 16.6504 27.3766 16.5162 27.3766H16.5162ZM17.2324 20.8866L16.74 21.1551V22.0502H11.9956V21.1551L11.5032 20.8866C9.30991 19.8122 7.96736 17.6192 7.96736 15.1573C7.96736 11.6215 10.832 8.75685 14.3678 8.75685C17.9037 8.75685 20.7683 11.6215 20.7683 15.1573C20.7683 17.5742 19.4258 19.7676 17.2324 20.8866H17.2324Z" fill="#173463"/>
<path d="M14.3681 5.66905C14.8606 5.66905 15.2635 5.26618 15.2635 4.7737V1.68441C15.2635 1.19191 14.8606 0.789062 14.3681 0.789062C13.8756 0.789062 13.4728 1.19193 13.4728 1.68441V4.7737C13.4728 5.2662 13.8756 5.66905 14.3681 5.66905Z" fill="#173463"/>
<path d="M27.8416 14.1729H24.7523C24.2598 14.1729 23.8569 14.5757 23.8569 15.0682C23.8569 15.5607 24.2598 15.9635 24.7523 15.9635H27.8416C28.3341 15.9635 28.7369 15.5607 28.7369 15.0682C28.7372 14.5757 28.3341 14.1729 27.8416 14.1729Z" fill="#173463"/>
<path d="M3.98464 14.1729H0.895344C0.402844 14.1729 0 14.5757 0 15.0682C0 15.5607 0.402868 15.9635 0.895344 15.9635H3.98464C4.47714 15.9635 4.87999 15.5607 4.87999 15.0682C4.8803 14.5757 4.47712 14.1729 3.98464 14.1729Z" fill="#173463"/>
<path d="M6.49103 6.34046L4.29715 4.14659C3.93894 3.78838 3.40181 3.78838 3.04356 4.14659C2.68535 4.5048 2.68535 5.04193 3.04356 5.40018L5.23743 7.59405C5.41638 7.773 5.6403 7.86263 5.86421 7.86263C6.08813 7.86263 6.31205 7.773 6.49099 7.59405C6.8492 7.23584 6.8492 6.69839 6.49099 6.34046H6.49103Z" fill="#173463"/>
<path d="M25.6931 4.14659C25.3348 3.78838 24.7977 3.78838 24.4395 4.14659L22.2456 6.34046C21.8874 6.69867 21.8874 7.2358 22.2456 7.59405C22.4245 7.773 22.6485 7.86263 22.8724 7.86263C23.0963 7.86263 23.3202 7.773 23.4991 7.59405L25.693 5.40018C26.0512 5.04197 26.0512 4.50484 25.693 4.14659H25.6931Z" fill="#173463"/>
</svg>
