<svg width="22" height="25" viewBox="0 0 22 25" fill="none" xmlns="http://www.w3.org/2000/svg">
<path fill-rule="evenodd" clip-rule="evenodd" d="M2 3.29688C2 2.50123 2.31607 1.73816 2.87868 1.17555C3.44129 0.612945 4.20435 0.296875 5 0.296875H17C17.7956 0.296875 18.5587 0.612945 19.1213 1.17555C19.6839 1.73816 20 2.50123 20 3.29688V21.2969C20.3978 21.2969 20.7794 21.4549 21.0607 21.7362C21.342 22.0175 21.5 22.399 21.5 22.7969C21.5 23.1947 21.342 23.5762 21.0607 23.8575C20.7794 24.1388 20.3978 24.2969 20 24.2969H15.5C15.1022 24.2969 14.7206 24.1388 14.4393 23.8575C14.158 23.5762 14 23.1947 14 22.7969V19.7969C14 19.399 13.842 19.0175 13.5607 18.7362C13.2794 18.4549 12.8978 18.2969 12.5 18.2969H9.5C9.10218 18.2969 8.72064 18.4549 8.43934 18.7362C8.15804 19.0175 8 19.399 8 19.7969V22.7969C8 23.1947 7.84196 23.5762 7.56066 23.8575C7.27936 24.1388 6.89782 24.2969 6.5 24.2969H2C1.60218 24.2969 1.22064 24.1388 0.93934 23.8575C0.658035 23.5762 0.5 23.1947 0.5 22.7969C0.5 22.399 0.658035 22.0175 0.93934 21.7362C1.22064 21.4549 1.60218 21.2969 2 21.2969V3.29688ZM6.5 4.79688H9.5V7.79688H6.5V4.79688ZM9.5 10.7969H6.5V13.7969H9.5V10.7969ZM12.5 4.79688H15.5V7.79688H12.5V4.79688ZM15.5 10.7969H12.5V13.7969H15.5V10.7969Z" fill="#1D427C"/>
</svg>
