<svg width="20" height="20" viewBox="0 0 20 20" fill="none" xmlns="http://www.w3.org/2000/svg">
<path d="M10.3783 19.0754C10.1306 19.1408 9.87002 19.1408 9.62236 19.0754C5.16966 17.8989 1.66699 13.6431 1.66699 9.16732V5.35213C1.66699 4.63654 2.10266 3.99305 2.76706 3.72729L9.35039 1.09396C9.76761 0.92707 10.233 0.92707 10.6503 1.09396L17.2336 3.72729C17.898 3.99305 18.3337 4.63654 18.3337 5.35213V9.16732C18.3337 13.6447 14.831 17.899 10.3783 19.0754ZM4.46919 4.57483C3.78616 4.83096 3.33366 5.48392 3.33366 6.2134V9.16732C3.38128 11.0941 4.05896 12.9522 5.26297 14.4572C6.37529 15.8476 7.88021 16.8659 9.57692 17.383C9.85287 17.4672 10.1478 17.4672 10.4237 17.383C12.1204 16.8659 13.6254 15.8476 14.7377 14.4572C15.9417 12.9522 16.6194 11.0941 16.667 9.16732V6.2134C16.667 5.48392 16.2145 4.83096 15.5315 4.57483L10.6148 2.73108C10.2186 2.58251 9.78203 2.58251 9.38586 2.73108L4.46919 4.57483Z" fill="black"/>
<path d="M10.0003 9.16667C11.1509 9.16667 12.0837 8.23393 12.0837 7.08333C12.0837 5.93274 11.1509 5 10.0003 5C8.84973 5 7.91699 5.93274 7.91699 7.08333C7.91699 8.23393 8.84973 9.16667 10.0003 9.16667Z" fill="black"/>
<path d="M5.83301 12.5C6.24375 13.2485 6.846 13.8744 7.57812 14.3137C8.31025 14.753 9.14594 14.9898 9.99967 15C10.8534 14.9898 11.6891 14.753 12.4212 14.3137C13.1533 13.8744 13.7556 13.2485 14.1663 12.5C14.1455 10.92 11.3813 10 9.99967 10C8.61051 10 5.85384 10.92 5.83301 12.5Z" fill="black"/>
</svg>
