<svg width="18" height="19" viewBox="0 0 18 19" fill="none" xmlns="http://www.w3.org/2000/svg">
<path d="M8.38336 3.82325C8.45217 3.72332 8.54423 3.64161 8.65163 3.58516C8.75903 3.52872 8.87853 3.49922 8.99986 3.49922C9.12119 3.49922 9.2407 3.52872 9.34809 3.58516C9.45549 3.64161 9.54756 3.72332 9.61636 3.82325L16.3664 13.5732C16.4445 13.6857 16.4903 13.8174 16.4988 13.9541C16.5074 14.0908 16.4783 14.2272 16.4147 14.3485C16.3512 14.4698 16.2556 14.5713 16.1384 14.6421C16.0212 14.7129 15.8868 14.7502 15.7499 14.75H2.24986C2.11324 14.7494 1.97936 14.7116 1.86262 14.6407C1.74588 14.5697 1.65069 14.4683 1.58729 14.3473C1.52389 14.2262 1.49467 14.0902 1.50279 13.9539C1.51091 13.8175 1.55605 13.6859 1.63336 13.5732L8.38336 3.82325Z" fill="black"/>
</svg>
