<svg width="34" height="34" viewBox="0 0 34 34" fill="none" xmlns="http://www.w3.org/2000/svg">
<path fill-rule="evenodd" clip-rule="evenodd" d="M17 15.2996C18.3526 15.2996 19.6498 14.7623 20.6062 13.8059C21.5627 12.8494 22.1 11.5522 22.1 10.1996C22.1 8.84701 21.5627 7.5498 20.6062 6.59336C19.6498 5.63693 18.3526 5.09961 17 5.09961C15.6474 5.09961 14.3502 5.63693 13.3937 6.59336C12.4373 7.5498 11.9 8.84701 11.9 10.1996C11.9 11.5522 12.4373 12.8494 13.3937 13.8059C14.3502 14.7623 15.6474 15.2996 17 15.2996ZM5.09998 30.5996C5.09998 29.0369 5.40778 27.4895 6.00581 26.0457C6.60384 24.6019 7.48039 23.2901 8.5854 22.185C9.69042 21.08 11.0023 20.2035 12.446 19.6054C13.8898 19.0074 15.4372 18.6996 17 18.6996C18.5627 18.6996 20.1101 19.0074 21.5539 19.6054C22.9977 20.2035 24.3095 21.08 25.4145 22.185C26.5196 23.2901 27.3961 24.6019 27.9941 26.0457C28.5922 27.4895 28.9 29.0369 28.9 30.5996H5.09998Z" fill="black"/>
</svg>
