<svg width="20" height="21" viewBox="0 0 20 21" fill="none" xmlns="http://www.w3.org/2000/svg">
<path d="M10 6.5C9.46957 6.5 8.96086 6.28929 8.58579 5.91421C8.21071 5.53914 8 5.03043 8 4.5C8 3.96957 8.21071 3.46086 8.58579 3.08579C8.96086 2.71071 9.46957 2.5 10 2.5C10.5304 2.5 11.0391 2.71071 11.4142 3.08579C11.7893 3.46086 12 3.96957 12 4.5C12 5.03043 11.7893 5.53914 11.4142 5.91421C11.0391 6.28929 10.5304 6.5 10 6.5ZM10 12.5C9.46957 12.5 8.96086 12.2893 8.58579 11.9142C8.21071 11.5391 8 11.0304 8 10.5C8 9.96957 8.21071 9.46086 8.58579 9.08579C8.96086 8.71071 9.46957 8.5 10 8.5C10.5304 8.5 11.0391 8.71071 11.4142 9.08579C11.7893 9.46086 12 9.96957 12 10.5C12 11.0304 11.7893 11.5391 11.4142 11.9142C11.0391 12.2893 10.5304 12.5 10 12.5ZM10 18.5C9.46957 18.5 8.96086 18.2893 8.58579 17.9142C8.21071 17.5391 8 17.0304 8 16.5C8 15.9696 8.21071 15.4609 8.58579 15.0858C8.96086 14.7107 9.46957 14.5 10 14.5C10.5304 14.5 11.0391 14.7107 11.4142 15.0858C11.7893 15.4609 12 15.9696 12 16.5C12 17.0304 11.7893 17.5391 11.4142 17.9142C11.0391 18.2893 10.5304 18.5 10 18.5Z" fill="black"/>
</svg>
