<svg width="24" height="25" viewBox="0 0 24 25" fill="none" xmlns="http://www.w3.org/2000/svg">
<path d="M23.5 17.5L18.5 22.5L15 19L16.5 17.5L18.5 19.5L22 16L23.5 17.5ZM12 9.5C12.7956 9.5 13.5587 9.81607 14.1213 10.3787C14.6839 10.9413 15 11.7044 15 12.5C15 13.2956 14.6839 14.0587 14.1213 14.6213C13.5587 15.1839 12.7956 15.5 12 15.5C11.2044 15.5 10.4413 15.1839 9.87868 14.6213C9.31607 14.0587 9 13.2956 9 12.5C9 11.7044 9.31607 10.9413 9.87868 10.3787C10.4413 9.81607 11.2044 9.5 12 9.5ZM12 17.5C12.5 17.5 12.97 17.43 13.42 17.29C13.15 18 13 18.72 13 19.5V19.95L12 20C7 20 2.73 16.89 1 12.5C2.73 8.11 7 5 12 5C17 5 21.27 8.11 23 12.5C22.75 13.14 22.44 13.76 22.08 14.35C21.18 13.81 20.12 13.5 19 13.5C18.22 13.5 17.5 13.65 16.79 13.92C16.93 13.47 17 13 17 12.5C17 11.1739 16.4732 9.90215 15.5355 8.96447C14.5979 8.02678 13.3261 7.5 12 7.5C10.6739 7.5 9.40215 8.02678 8.46447 8.96447C7.52678 9.90215 7 11.1739 7 12.5C7 13.8261 7.52678 15.0979 8.46447 16.0355C9.40215 16.9732 10.6739 17.5 12 17.5Z" fill="black"/>
</svg>
